<?xml version="1.0" encoding="utf-8"?>
<!-- Generator: Adobe Illustrator 26.3.1, SVG Export Plug-In . SVG Version: 6.00 Build 0)  -->
<svg version="1.1" id="Ebene_1" xmlns="http://www.w3.org/2000/svg" xmlns:xlink="http://www.w3.org/1999/xlink" x="0px" y="0px"
	 viewBox="0 0 90.06 90.06" style="enable-background:new 0 0 90.06 90.06;" xml:space="preserve">
<style type="text/css">
	.st0{fill:none;}
</style>
<g>
	<path class="st0" d="M45.03,6.35C23.7,6.35,6.35,23.7,6.35,45.03S23.7,83.72,45.03,83.72s38.69-17.35,38.69-38.69
		S66.36,6.35,45.03,6.35z M45.03,52.15c-3.93,0-7.11-3.18-7.11-7.11c0-3.93,3.18-7.11,7.11-7.11c3.93,0,7.12,3.19,7.12,7.11
		C52.15,48.96,48.96,52.15,45.03,52.15z"/>
	<path d="M45.03,0C20.2,0,0,20.2,0,45.03c0,24.83,20.2,45.03,45.03,45.03c24.83,0,45.03-20.2,45.03-45.03
		C90.06,20.2,69.86,0,45.03,0z M45.03,83.72c-21.33,0-38.69-17.35-38.69-38.69S23.7,6.35,45.03,6.35S83.72,23.7,83.72,45.03
		S66.36,83.72,45.03,83.72z"/>
	<path d="M45.03,37.92c-3.93,0-7.11,3.19-7.11,7.11c0,3.93,3.18,7.11,7.11,7.11c3.93,0,7.12-3.18,7.12-7.11
		C52.15,41.1,48.96,37.92,45.03,37.92z"/>
</g>
</svg>
