<?xml version="1.0" encoding="utf-8"?>
<!-- Generator: Adobe Illustrator 26.3.1, SVG Export Plug-In . SVG Version: 6.00 Build 0)  -->
<svg version="1.1" id="Ebene_1" xmlns="http://www.w3.org/2000/svg" xmlns:xlink="http://www.w3.org/1999/xlink" x="0px" y="0px"
	 viewBox="0 0 411.99 64.95" style="enable-background:new 0 0 411.99 64.95;" xml:space="preserve">
<style type="text/css">
	.st0{fill:#FFFFFF;}
</style>
<g>
	<path class="st0" d="M76.97,16.44v-3.32h29.36v3.32H93.5v35.39H89.8V16.44H76.97z"/>
	<path class="st0" d="M290.4,13.12v35.39h20.29v3.32h-23.94V13.12H290.4z"/>
	<path class="st0" d="M341.21,13.12v3.32h-20.29V30.7h19.19v3.26h-19.19v14.54h20.85v3.32h-24.5V13.12H341.21z"/>
	<g>
		<path class="st0" d="M15.54,36.01c1.99-0.15,3.81-0.66,5.45-1.55c1.64-0.88,2.97-2.16,3.98-3.82c1.01-1.66,1.52-3.69,1.52-6.08
			c0-2.29-0.49-4.29-1.47-6.03c-0.98-1.73-2.37-3.07-4.17-4.01c-1.81-0.94-3.96-1.41-6.47-1.41H0v38.71h3.65V36.01h7.41l11.34,15.81
			h4.15L15.21,36.01H15.54z M3.65,32.7V16.44H14.1c2.77,0,4.9,0.72,6.41,2.16c1.51,1.44,2.27,3.43,2.27,5.97
			c0,2.54-0.76,4.53-2.27,5.97C19,31.98,16.87,32.7,14.1,32.7H3.65z"/>
		<path class="st0" d="M360.68,13.12l-14.65,38.71h3.65l3.76-10.12h18.69l3.76,10.12h3.65l-14.65-38.71H360.68z M354.76,38.45
			l7.85-21.23h0.28l7.91,21.23H354.76z"/>
		<path class="st0" d="M400.66,36.01h0.33c1.99-0.15,3.81-0.66,5.45-1.55c1.64-0.88,2.97-2.16,3.98-3.82
			c1.01-1.66,1.52-3.69,1.52-6.08c0-2.29-0.49-4.29-1.47-6.03c-0.98-1.73-2.37-3.07-4.17-4.01c-1.81-0.94-3.96-1.41-6.47-1.41
			h-14.38v38.71h3.65V36.01h7.41l11.34,15.81h4.15L400.66,36.01z M389.1,32.7V16.44h10.45c2.77,0,4.9,0.72,6.41,2.16
			c1.51,1.44,2.27,3.43,2.27,5.97c0,2.54-0.76,4.53-2.27,5.97c-1.51,1.44-3.65,2.16-6.41,2.16H389.1z"/>
	</g>
	<path class="st0" d="M53.71,12.57c-10.98,0-19.91,8.93-19.91,19.91c0,10.98,8.93,19.91,19.91,19.91c10.98,0,19.91-8.93,19.91-19.91
		C73.62,21.5,64.69,12.57,53.71,12.57z M53.71,49.02c-9.12,0-16.55-7.42-16.55-16.55c0-9.12,7.42-16.54,16.55-16.54
		c9.12,0,16.54,7.42,16.54,16.54C70.25,41.6,62.83,49.02,53.71,49.02z"/>
	<path class="st0" d="M129.54,12.57c-10.98,0-19.91,8.93-19.91,19.91c0,10.98,8.93,19.91,19.91,19.91
		c10.98,0,19.91-8.93,19.91-19.91C149.45,21.5,140.52,12.57,129.54,12.57z M129.54,49.02c-9.12,0-16.55-7.42-16.55-16.55
		c0-9.12,7.42-16.54,16.55-16.54c9.12,0,16.55,7.42,16.55,16.54C146.09,41.6,138.67,49.02,129.54,49.02z"/>
	<g>
		<path class="st0" d="M266.08,49.02c-9.12,0-16.55-7.42-16.55-16.55c0-9.12,7.42-16.54,16.55-16.54c4.56,0,8.7,1.86,11.69,4.85
			l2.38-2.38c-3.6-3.6-8.58-5.84-14.07-5.84c-10.98,0-19.91,8.93-19.91,19.91c0,10.98,8.93,19.91,19.91,19.91
			c5.49,0,10.47-2.23,14.07-5.84l-2.38-2.38C274.78,47.17,270.64,49.02,266.08,49.02z"/>
	</g>
	<g>
		<path class="st0" d="M197.77,0c-17.91,0-32.48,14.57-32.48,32.48s14.57,32.48,32.48,32.48s32.48-14.57,32.48-32.48
			S215.68,0,197.77,0z M225.21,32.48c0,15.13-12.31,27.43-27.43,27.43c-15.13,0-27.43-12.31-27.43-27.43s12.31-27.43,27.43-27.43
			C212.9,5.04,225.21,17.35,225.21,32.48z"/>
		<path class="st0" d="M197.77,27.13c-2.94,0-5.34,2.4-5.34,5.34c0,2.95,2.4,5.34,5.34,5.34c2.95,0,5.34-2.4,5.34-5.34
			C203.11,29.53,200.72,27.13,197.77,27.13z"/>
	</g>
</g>
</svg>
